#!OML:ASF F:\VICON\USERDATA\INSTALL\rory3\rory3.ASF
:FULLY-SPECIFIED
:DEGREES
122
root -0.1486706753267465 17.764192881453237 55.28893417091355 -2.475397086161659 -2.461018807990272 -2.540839875254738
lfemur -17.574922408803715 -3.736103012750166 -19.688602964752686
ltibia 20.12323897225172
lfoot -6.463496380692211 -0.0030295448586215024
ltoes -1.9426320980897127
rfemur -18.13430584072613 0.2578673003295533 23.504050761332103
rtibia 43.937321324102804
rfoot 0.541180951251409 -11.113451166376063
rtoes 5.729465667479694
lowerback 9.511980639980548 -0.13931018714533433 2.209599347392939
upperback -0.31498311375472937 0.10036802231870368 1.4684196596785044
thorax -5.824193619427205 -0.002976934781276086 0.7542637281794448
lowerneck -16.051079910684336 -2.8310585606093617 -3.241310965073027
upperneck 22.49350961503204 -3.341276071709069 0.9973481385858117
head 9.638201078440371 -1.6864577130059293 0.8559654438919106
lclavicle 1.4459248557009777e-16 2.3515093976994387e-16
lhumerus -33.685146478055515 7.567563197938423 78.56641716056573
lradius 22.04729381789721
lwrist 2.5951530769485536
lhand -27.04082008109477 21.301099941399738
lfingers 7.12502
lthumb -0.5165062113959624 51.3487904490645
rclavicle 1.4655844048824114e-16 2.3668155371185216e-16
rhumerus -26.270696199278056 -19.702191714980575 -76.65095030954423
rradius 18.82709579842728
rwrist 11.580995633660082
rhand -18.153116983494492 22.827440400882324
rfingers 7.12502
rthumb 8.188719855074032 -7.6581524233259675
123
root -0.1549145277103151 17.78720547657795 55.374520545771475 -2.5092212958052844 -2.653993684319715 -3.122414629329739
lfemur -16.625179008491244 -3.629842984947255 -19.476233126056577
ltibia 20.520569037399873
lfoot -4.457528178963857 -1.824247728554011
ltoes -2.9476148751596254
rfemur -18.993529449286157 0.49313754045188896 24.05035220556736
rtibia 43.1413917589306
rfoot -0.9628361232057783 -11.301257056518978
rtoes 4.851991635295254
lowerback 9.660398107186019 -0.12250925089510156 2.5232562551886226
upperback -0.24734574158855954 0.19567344474660886 1.5931346961234993
thorax -5.822456965491444 0.03218226689504511 0.6286770343634532
lowerneck -16.059814822450175 -2.822982836316122 -3.2242721038744646
upperneck 22.522806195812517 -3.329981741146062 0.996255319406733
head 9.64750367292508 -1.6824907407104361 0.8616544594010818
lclavicle 1.4486519229667424e-16 2.3536076405489765e-16
lhumerus -33.27596823288031 6.9271114307368284 78.69867494937972
lradius 22.241693707180808
lwrist 2.783562694190978
lhand -26.812779822050658 21.36635777426961
lfingers 7.12502
lthumb -0.29267159685993427 51.48790032999304
rclavicle 1.4650216435196242e-16 2.366382710327732e-16
rhumerus -26.573615405456472 -19.975666882827724 -76.70584499490161
rradius 18.59018930646421
rwrist 11.106252327097465
rhand -18.056886794844164 22.916491512473357
rfingers 7.12502
rthumb 8.284203920985751 -7.454487285876395
124
root -0.1575306547139319 17.805257063799846 55.4842922994008 -2.4561634708077618 -2.8803499921598115 -3.0674935457890804
lfemur -15.776953563140811 -3.6082039330336646 -19.789059872664414
ltibia 20.669467219639138
lfoot -1.9872793578032129 -4.0745715572438534
ltoes -3.8763613938201207
rfemur -19.630777987593163 0.9211694794672658 24.101318137878827
rtibia 41.880039605060546
rfoot -2.7932465929262396 -11.478987793383592
rtoes 4.109780203902592
lowerback 9.710237391294767 -0.07359671753663627 2.3218390809413054
upperback -0.16362822410438194 0.2398296787120634 1.6185996192548682
thorax -5.738120564759884 0.06546739173652355 0.6051346878950721
lowerneck -16.066206734188935 -2.811318739417866 -3.2234211230794516
upperneck 22.52925404685865 -3.318618532397613 1.0093832053713723
head 9.644519601755436 -1.6775936123252206 0.8749745747856401
lclavicle 1.4486630141245126e-16 2.3535917790870656e-16
lhumerus -32.76209145143317 6.1689992158948055 78.88102950441292
lradius 22.5591228649318
lwrist 2.8692867491878475
lhand -26.779734832771506 21.543198444857175
lfingers 7.12502
lthumb -0.2977855385405015 51.605347128613644
rclavicle 1.461783943205241e-16 2.363893072010717e-16
rhumerus -26.66820867349396 -19.671849673077453 -76.95193273882633
rradius 18.541552915497995
rwrist 10.725123039129237
rhand -17.987067672952847 22.96430949630406
rfingers 7.12502
rthumb 8.334138418200682 -7.3140566840419625
125
root -0.16685700892290112 17.82451174666017 55.46576563762396 -2.385417565822584 -2.9876761460005206 -3.113631824044318
lfemur -14.951013820863578 -3.7418402019939974 -20.005774569346936
ltibia 20.926598196458677
lfoot 1.2405750147498917 -6.526048232284925
ltoes -4.167169900554919
rfemur -20.103146358347374 1.3318046992225088 24.262173985601702
rtibia 40.22310967700709
rfoot -4.7192700996564785 -11.628262814372313
rtoes 3.2624578499125847
lowerback 9.776948080501997 -0.0838166387831843 2.2520756782376163
upperback -0.10895788021724795 0.2257229376200814 1.6652098952899326
thorax -5.7549159833135 0.05542735007745381 0.5490104553284852
lowerneck -16.038664010287654 -2.802282292767968 -3.252137843162836
upperneck 22.49970600058938 -3.304345911590907 1.022546226129633
head 9.62647208569282 -1.6742331700450142 0.8936199140994916
lclavicle 1.4505423003495094e-16 2.355027767742609e-16
lhumerus -32.20634160731378 5.420103676891896 79.07696799351014
lradius 23.033928495267016
lwrist 3.153168467988706
lhand -26.91491628324303 21.433164006600002
lfingers 7.12502
lthumb -0.37331659885735724 51.63679055322679
rclavicle 1.4584767574121947e-16 2.361350018774598e-16
rhumerus -26.66941938132745 -19.17869699139753 -77.18238407405666
rradius 18.59019886360198
rwrist 10.794553825845384
rhand -17.922732413767946 22.915451063588428
rfingers 7.12502
rthumb 8.32684704983438 -7.322250088450509
